<svg xmlns="http://www.w3.org/2000/svg" xmlns:xlink="http://www.w3.org/1999/xlink" style="margin:auto;background:#012c32;display:block;z-index:1;position:relative" width="1996" height="1284" preserveAspectRatio="xMidYMid" viewBox="0 0 1996 1284">
<g transform=""><path d="M-100 742.02C61.49 774.97 61.78 763.83 213.71 763.83S371.31 724.19 527.43 724.19S686.82 725.09 841.14 725.09S999.1 735.49 1154.86 735.49S1316.73 771.42 1468.57 771.42S1630.19 731.77 1782.29 731.77S1944.68 753.32 2096 753.32S2257.35 764.35 2409.71 764.35L2096 1284 L-100 1284 Z" fill="#0f3135" stroke-width="0">
  <animate attributeName="d" dur="12.5s" repeatCount="indefinite" values="M-100 742.02C61.49 774.97 61.78 763.83 213.71 763.83S371.31 724.19 527.43 724.19S686.82 725.09 841.14 725.09S999.1 735.49 1154.86 735.49S1316.73 771.42 1468.57 771.42S1630.19 731.77 1782.29 731.77S1944.68 753.32 2096 753.32S2257.35 764.35 2409.71 764.35L2096 1284 L-100 1284 Z;M-100 738.36C60.1 756.18 59.84 740.04 213.71 740.04S373.31 736.48 527.43 736.48S684.67 754.89 841.14 754.89S1002.87 754.48 1154.86 754.48S1316.11 724.58 1468.57 724.58S1626.46 743.38 1782.29 743.38S1943.26 726.43 2096 726.43S2256.49 737.96 2409.71 737.96L2096 1284 L-100 1284 Z;M-100 742.02C61.49 774.97 61.78 763.83 213.71 763.83S371.31 724.19 527.43 724.19S686.82 725.09 841.14 725.09S999.1 735.49 1154.86 735.49S1316.73 771.42 1468.57 771.42S1630.19 731.77 1782.29 731.77S1944.68 753.32 2096 753.32S2257.35 764.35 2409.71 764.35L2096 1284 L-100 1284 Z"></animate>
  <animateTransform attributeName="transform" type="translate" dur="12.5s" begin="0s" repeatCount="indefinite" values="0;10;0" calcMode="spline" keySplines="0.3 0 0.7 1;0.3 0 0.7 1"></animateTransform>
</path><path d="M-100 804.16C71.62 838.21 66.4 821.79 232.73 821.79S402.42 827.48 565.45 827.48S734.21 809.33 898.18 809.33S1067.02 819.77 1230.91 819.77S1399.1 831.72 1563.64 831.72S1730.13 811.44 1896.36 811.44S2063.41 801.83 2229.09 801.83L2096 1284 L-100 1284 Z" fill="#3b5658" stroke-width="0">
  <animate attributeName="d" dur="10s" repeatCount="indefinite" values="M-100 804.16C71.62 838.21 66.4 821.79 232.73 821.79S402.42 827.48 565.45 827.48S734.21 809.33 898.18 809.33S1067.02 819.77 1230.91 819.77S1399.1 831.72 1563.64 831.72S1730.13 811.44 1896.36 811.44S2063.41 801.83 2229.09 801.83L2096 1284 L-100 1284 Z;M-100 807.33C69.92 814.95 66.87 806.24 232.73 806.24S404.49 847.44 565.45 847.44S732.83 818.35 898.18 818.35S1067.73 837.45 1230.91 837.45S1402.35 809.26 1563.64 809.26S1732.45 839.56 1896.36 839.56S2067.48 819.47 2229.09 819.47L2096 1284 L-100 1284 Z;M-100 804.16C71.62 838.21 66.4 821.79 232.73 821.79S402.42 827.48 565.45 827.48S734.21 809.33 898.18 809.33S1067.02 819.77 1230.91 819.77S1399.1 831.72 1563.64 831.72S1730.13 811.44 1896.36 811.44S2063.41 801.83 2229.09 801.83L2096 1284 L-100 1284 Z"></animate>
  <animateTransform attributeName="transform" type="translate" dur="10s" begin="-2s" repeatCount="indefinite" values="0;10;0" calcMode="spline" keySplines="0.3 0 0.7 1;0.3 0 0.7 1"></animateTransform>
</path><path d="M-100 857.58C81.5 892.8 79.91 903.92 254.19 903.92S435.56 866.07 608.39 866.07S788.76 924.69 962.58 924.69S1143.6 899.76 1316.77 899.76S1499.16 938.3 1670.97 938.3S1850.47 862.85 2025.16 862.85S2207.88 914.7 2379.35 914.7L2096 1284 L-100 1284 Z" fill="#677d7f" stroke-width="0">
  <animate attributeName="d" dur="7.5s" repeatCount="indefinite" values="M-100 857.58C81.5 892.8 79.91 903.92 254.19 903.92S435.56 866.07 608.39 866.07S788.76 924.69 962.58 924.69S1143.6 899.76 1316.77 899.76S1499.16 938.3 1670.97 938.3S1850.47 862.85 2025.16 862.85S2207.88 914.7 2379.35 914.7L2096 1284 L-100 1284 Z;M-100 864.45C80.95 882.33 79.62 932.45 254.19 932.45S431.4 873.31 608.39 873.31S787.89 925.4 962.58 925.4S1141.3 867.66 1316.77 867.66S1496.58 937.82 1670.97 937.82S1851.72 860.04 2025.16 860.04S2202.36 904.7 2379.35 904.7L2096 1284 L-100 1284 Z;M-100 857.58C81.5 892.8 79.91 903.92 254.19 903.92S435.56 866.07 608.39 866.07S788.76 924.69 962.58 924.69S1143.6 899.76 1316.77 899.76S1499.16 938.3 1670.97 938.3S1850.47 862.85 2025.16 862.85S2207.88 914.7 2379.35 914.7L2096 1284 L-100 1284 Z"></animate>
  <animateTransform attributeName="transform" type="translate" dur="7.5s" begin="-3s" repeatCount="indefinite" values="0;10;0" calcMode="spline" keySplines="0.3 0 0.7 1;0.3 0 0.7 1"></animateTransform>
</path><path d="M-100 947.41C91.04 967.57 93.48 1028.78 278.62 1028.78S469.24 945.65 657.24 945.65S848.58 1034.9 1035.86 1034.9S1229.63 966.77 1414.48 966.77S1604.97 1032.28 1793.1 1032.28S1985.2 962.25 2171.72 962.25L2096 1284 L-100 1284 Z" fill="#95a6a7" stroke-width="0">
  <animate attributeName="d" dur="5s" repeatCount="indefinite" values="M-100 947.41C91.04 967.57 93.48 1028.78 278.62 1028.78S469.24 945.65 657.24 945.65S848.58 1034.9 1035.86 1034.9S1229.63 966.77 1414.48 966.77S1604.97 1032.28 1793.1 1032.28S1985.2 962.25 2171.72 962.25L2096 1284 L-100 1284 Z;M-100 941.67C89.45 963.56 94.52 937.53 278.62 937.53S471.55 963.46 657.24 963.46S847.48 1021.12 1035.86 1021.12S1230.2 928.88 1414.48 928.88S1605.5 991.7 1793.1 991.7S1985.81 954.95 2171.72 954.95L2096 1284 L-100 1284 Z;M-100 947.41C91.04 967.57 93.48 1028.78 278.62 1028.78S469.24 945.65 657.24 945.65S848.58 1034.9 1035.86 1034.9S1229.63 966.77 1414.48 966.77S1604.97 1032.28 1793.1 1032.28S1985.2 962.25 2171.72 962.25L2096 1284 L-100 1284 Z"></animate>
  <animateTransform attributeName="transform" type="translate" dur="5s" begin="-3s" repeatCount="indefinite" values="0;10;0" calcMode="spline" keySplines="0.3 0 0.7 1;0.3 0 0.7 1"></animateTransform>
</path><path d="M-100 984.94C104.75 995.08 105.6 1097.97 306.67 1097.97S512.72 1001.16 713.33 1001.16S917.45 1081.27 1120 1081.27S1325.24 991.65 1526.67 991.65S1731.83 1099.12 1933.33 1099.12S2140.89 980.79 2340 980.79L2096 1284 L-100 1284 Z" fill="#c6d2d2" stroke-width="0">
  <animate attributeName="d" dur="2.5s" repeatCount="indefinite" values="M-100 984.94C104.75 995.08 105.6 1097.97 306.67 1097.97S512.72 1001.16 713.33 1001.16S917.45 1081.27 1120 1081.27S1325.24 991.65 1526.67 991.65S1731.83 1099.12 1933.33 1099.12S2140.89 980.79 2340 980.79L2096 1284 L-100 1284 Z;M-100 988.59C108.35 986.66 107.58 1102.11 306.67 1102.11S514.78 1021.43 713.33 1021.43S920.5 1095.48 1120 1095.48S1324.95 992.47 1526.67 992.47S1731.92 1106.64 1933.33 1106.64S2141.83 992.09 2340 992.09L2096 1284 L-100 1284 Z;M-100 984.94C104.75 995.08 105.6 1097.97 306.67 1097.97S512.72 1001.16 713.33 1001.16S917.45 1081.27 1120 1081.27S1325.24 991.65 1526.67 991.65S1731.83 1099.12 1933.33 1099.12S2140.89 980.79 2340 980.79L2096 1284 L-100 1284 Z"></animate>
  <animateTransform attributeName="transform" type="translate" dur="2.5s" begin="-2s" repeatCount="indefinite" values="0;10;0" calcMode="spline" keySplines="0.3 0 0.7 1;0.3 0 0.7 1"></animateTransform>
</path></g>
</svg>