<svg xmlns="http://www.w3.org/2000/svg" xmlns:xlink="http://www.w3.org/1999/xlink" style="margin:auto;background:#f1f2f3;display:block;z-index:1;position:relative" width="1889" height="937" preserveAspectRatio="xMidYMid" viewBox="0 0 1889 937">
<g transform=""><g transform="translate(1605.65,468.5) scale(100)" opacity="0.51">
  <path d="M5.752005 0 C5.752005 1.9834499999999995 6.685302171855247 3.880280281566332 5.28279122671079 5.282791226710789 S1.98345 5.752005 3.5220872559647853e-16 5.752005 S-3.880280281566332 6.685302171855247 -5.282791226710789 5.28279122671079 S-5.752005 1.9834500000000002 -5.752005 7.044174511929571e-16 S-6.685302171855248 -3.8802802815663315 -5.282791226710791 -5.282791226710789 S-1.9834500000000006 -5.752005 -1.0566261767894356e-15 -5.752005 S3.8802802815663306 -6.685302171855248 5.282791226710788 -5.282791226710791 S5.752004999999999 -1.9834500000000008 5.752005 -1.4088349023859141e-15" fill="#1ac9ff" stroke-width="0">
    <animateTransform attributeName="transform" type="rotate" dur="20s" repeatCount="indefinite" values="0;90"></animateTransform>
  </path>
</g><g transform="translate(1737.88,468.5) scale(100)" opacity="0.51">
  <path d="M6.902406 0 C6.902406 2.3801399999999995 8.022362606226297 4.6563363378795986 6.339349472052948 6.339349472052947 S2.38014 6.902406 4.2265047071577426e-16 6.902406 S-4.6563363378795986 8.022362606226297 -6.339349472052947 6.339349472052948 S-6.902406 2.3801400000000004 -6.902406 8.453009414315485e-16 S-8.022362606226299 -4.656336337879598 -6.339349472052949 -6.339349472052947 S-2.380140000000001 -6.902406 -1.2679514121473227e-15 -6.902406 S4.656336337879598 -8.022362606226297 6.339349472052946 -6.339349472052949 S6.902405999999999 -2.3801400000000013 6.902406 -1.690601882863097e-15" fill="#00a3ff" stroke-width="0">
    <animateTransform attributeName="transform" type="rotate" dur="10s" repeatCount="indefinite" values="0;90"></animateTransform>
  </path>
</g><g transform="translate(2055.232,468.5) scale(100)" opacity="0.51">
  <path d="M9.6633684 0 C9.6633684 3.3321959999999993 11.231307648716815 6.518870873031438 8.875089260874127 8.875089260874127 S3.3321959999999997 9.6633684 5.917106590020839e-16 9.6633684 S-6.518870873031438 11.231307648716815 -8.875089260874127 8.875089260874127 S-9.6633684 3.3321960000000006 -9.6633684 1.1834213180041679e-15 S-11.231307648716816 -6.518870873031438 -8.875089260874129 -8.875089260874127 S-3.332196000000001 -9.6633684 -1.7751319770062517e-15 -9.6633684 S6.518870873031436 -11.231307648716816 8.875089260874125 -8.875089260874129 S9.6633684 -3.3321960000000015 9.6633684 -2.3668426360083358e-15" fill="#1077fd" stroke-width="0">
    <animateTransform attributeName="transform" type="rotate" dur="6.666666666666666s" repeatCount="indefinite" values="0;90"></animateTransform>
  </path>
</g></g>
</svg>